<svg width="59" height="60" viewBox="0 0 59 60" fill="none" xmlns="http://www.w3.org/2000/svg">
<path d="M21.4731 52.4232L3.14697 17.0897L39.0777 2.33927L50.8587 40.3532L37.8193 50.473L21.4731 52.4232Z" fill="#1572B6"/>
<path d="M36.5615 47.3459L47.0981 39.1684L37.0309 6.68341L22.3438 12.7128L36.5615 47.3459Z" fill="#33A9DC"/>
<path d="M27.7986 26.0005L33.7508 23.557L32.271 18.7821L25.9076 21.3944L24.061 16.8962L35.3405 12.2657L35.7279 13.517L39.7109 26.3665L29.6452 30.4987L27.7986 26.0005Z" fill="white"/>
<path d="M32.6207 37.6718L32.6033 37.6858L27.0386 38.3897L25.2455 34.9337L20.7307 36.7871L24.2602 43.5914L34.5239 42.3661L34.542 42.3518L32.6207 37.6718Z" fill="#EBEBEB"/>
<path d="M35.1369 28.022L37.0679 34.2683L32.607 37.682L34.5282 42.362L42.7005 36.0208L42.4561 35.233L39.6497 26.1694L35.1369 28.022Z" fill="white"/>
<path d="M24.0763 16.89L25.9229 21.3882L15.0578 25.8485L14.5528 24.8747L13.4117 22.6784L12.8086 21.5157L24.0763 16.89ZM27.7988 26.0012L29.6454 30.4994L24.6991 32.53L24.1941 31.5562L23.0527 29.36L22.4499 28.1971L27.7988 26.0012Z" fill="#EBEBEB"/>
</svg>
