<svg width="85" height="86" viewBox="0 0 85 86" fill="none" xmlns="http://www.w3.org/2000/svg">
<path d="M14.663 52.1309L35.1912 7.6156L76.6808 31.4269L48.5996 71.5986L28.9073 66.5586L14.663 52.1309Z" fill="#E44F26"/>
<path d="M30.9984 62.9737L46.9118 67.0468L70.9073 32.7176L53.9485 22.9847L30.9984 62.9737Z" fill="#F1662A"/>
<path d="M44.9352 38.69L38.0623 34.7455L40.6408 29.155L47.9876 33.3714L50.9686 28.1772L37.9453 20.7031L37.2692 22.1692L30.3308 37.2133L41.9542 43.8842L44.9352 38.69ZM37.1939 52.1787L37.1665 52.1719L32.2784 47.2913L34.286 42.9369L29.0717 39.9443L25.12 48.5153L34.065 57.5762L34.0924 57.583L37.1939 52.1787Z" fill="#EBEBEB"/>
<path d="M44.9164 38.6792L41.9354 43.8734L48.331 47.544L43.8631 53.9355L37.1721 52.173L34.0706 57.5772L46.4139 60.7362L46.9946 59.9034L56.062 46.93L56.9902 45.6085L44.9164 38.6792ZM50.9497 28.1665L47.9687 33.3607L60.5147 40.561L61.2882 39.4546L63.0364 36.9573L63.9612 35.6339L50.9497 28.1665Z" fill="white"/>
</svg>
