<svg width="51" height="51" viewBox="0 0 51 51" fill="none" xmlns="http://www.w3.org/2000/svg">
<path d="M25.0028 0.385925C12.2907 0.385925 13.0844 5.89867 13.0844 5.89867L13.0985 11.61H25.2295V13.3247H8.28026C8.28026 13.3247 0.145752 12.4022 0.145752 25.2287C0.145752 38.0555 7.24575 37.6006 7.24575 37.6006H11.483V31.6485C11.483 31.6485 11.2546 24.5485 18.4697 24.5485H30.5014C30.5014 24.5485 37.2612 24.6577 37.2612 18.0153V7.03259C37.2612 7.03259 38.2879 0.385925 25.0028 0.385925ZM18.3138 4.22671C18.6005 4.22645 18.8844 4.28272 19.1492 4.39231C19.4141 4.50189 19.6548 4.66263 19.8575 4.86533C20.0602 5.06803 20.221 5.30872 20.3305 5.57361C20.4401 5.8385 20.4964 6.1224 20.4961 6.40906C20.4964 6.69573 20.4401 6.97963 20.3305 7.24452C20.221 7.50941 20.0602 7.75009 19.8575 7.9528C19.6548 8.1555 19.4141 8.31624 19.1492 8.42582C18.8844 8.5354 18.6005 8.59167 18.3138 8.59142C18.0271 8.59167 17.7432 8.5354 17.4783 8.42582C17.2134 8.31624 16.9728 8.1555 16.7701 7.9528C16.5674 7.75009 16.4066 7.50941 16.297 7.24452C16.1875 6.97963 16.1312 6.69573 16.1314 6.40906C16.1312 6.1224 16.1875 5.8385 16.297 5.57361C16.4066 5.30872 16.5674 5.06803 16.7701 4.86533C16.9728 4.66263 17.2134 4.50189 17.4783 4.39231C17.7432 4.28272 18.0271 4.22645 18.3138 4.22671Z" fill="url(#paint0_linear_20_120)"/>
<path d="M25.3639 50.2004C38.0761 50.2004 37.2824 44.6877 37.2824 44.6877L37.2682 38.9765H25.1371V37.2618H42.0863C42.0863 37.2618 50.2208 38.1844 50.2208 25.3575C50.2208 12.5308 43.1208 12.9857 43.1208 12.9857H38.8835V18.9377C38.8835 18.9377 39.112 26.0377 31.8969 26.0377H19.8651C19.8651 26.0377 13.1053 25.9285 13.1053 32.571V43.554C13.1053 43.554 12.0788 50.2004 25.3637 50.2004M32.0528 46.36C31.7661 46.3603 31.4822 46.304 31.2173 46.1944C30.9524 46.0849 30.7117 45.9241 30.509 45.7214C30.3063 45.5187 30.1456 45.278 30.036 45.0131C29.9264 44.7483 29.8701 44.4644 29.8704 44.1777C29.8701 43.891 29.9264 43.6071 30.0359 43.3422C30.1455 43.0773 30.3062 42.8366 30.509 42.6338C30.7117 42.4311 30.9524 42.2704 31.2173 42.1608C31.4822 42.0512 31.7661 41.9949 32.0528 41.9951C32.3394 41.9949 32.6233 42.0512 32.8882 42.1607C33.1531 42.2703 33.3938 42.4311 33.5965 42.6338C33.7992 42.8365 33.9599 43.0771 34.0695 43.342C34.1791 43.6069 34.2354 43.8908 34.2351 44.1775C34.2354 44.4642 34.1791 44.7481 34.0695 45.0129C33.9599 45.2778 33.7992 45.5185 33.5965 45.7212C33.3938 45.9239 33.1531 46.0847 32.8882 46.1942C32.6233 46.3038 32.3394 46.3603 32.0528 46.36Z" fill="url(#paint1_linear_20_120)"/>
<defs>
<linearGradient id="paint0_linear_20_120" x1="481.364" y1="448.438" x2="2962.92" y2="2905.24" gradientUnits="userSpaceOnUse">
<stop stop-color="#387EB8"/>
<stop offset="1" stop-color="#366994"/>
</linearGradient>
<linearGradient id="paint1_linear_20_120" x1="723.384" y1="778.866" x2="3388.29" y2="3298.09" gradientUnits="userSpaceOnUse">
<stop stop-color="#FFE052"/>
<stop offset="1" stop-color="#FFC331"/>
</linearGradient>
</defs>
</svg>
