<svg width="50" height="44" viewBox="0 0 50 44" fill="none" xmlns="http://www.w3.org/2000/svg">
<path d="M25.2281 30.3952C37.9852 30.3952 48.3388 26.5434 48.3388 21.7672C48.3388 16.991 37.9852 13.1393 25.2281 13.1393C12.471 13.1393 2.11743 16.991 2.11743 21.7672C2.11743 26.5434 12.471 30.3952 25.2281 30.3952Z" stroke="#91D7E3" stroke-width="3.08142" stroke-linecap="round" stroke-linejoin="round"/>
<path d="M17.5859 26.0812C23.9645 36.8662 32.5617 43.707 36.7832 41.3343C41.0048 38.9308 39.2484 28.2691 32.8698 17.4533C26.4913 6.66827 17.8941 -0.172494 13.6725 2.2002C9.45098 4.60371 11.2074 15.2654 17.5859 26.0812Z" stroke="#91D7E3" stroke-width="3.08142" stroke-linecap="round" stroke-linejoin="round"/>
<path d="M17.5859 17.4533C11.2074 28.2382 9.45098 38.9308 13.6725 41.3343C17.8941 43.707 26.4913 36.8662 32.8698 26.0812C39.2484 15.2963 41.0048 4.60371 36.7832 2.2002C32.5617 -0.172494 23.9645 6.66827 17.5859 17.4533Z" stroke="#91D7E3" stroke-width="3.08142" stroke-linecap="round" stroke-linejoin="round"/>
<path d="M26.7689 21.7673C26.7689 22.1759 26.6066 22.5678 26.3177 22.8567C26.0287 23.1457 25.6368 23.308 25.2282 23.308C24.8196 23.308 24.4277 23.1457 24.1388 22.8567C23.8498 22.5678 23.6875 22.1759 23.6875 21.7673C23.6875 21.3587 23.8498 20.9668 24.1388 20.6778C24.4277 20.3889 24.8196 20.2266 25.2282 20.2266C25.6368 20.2266 26.0287 20.3889 26.3177 20.6778C26.6066 20.9668 26.7689 21.3587 26.7689 21.7673Z" stroke="#91D7E3" stroke-width="3.08142" stroke-linecap="round" stroke-linejoin="round"/>
</svg>
