<svg width="175" height="87" viewBox="0 0 175 87" fill="none" xmlns="http://www.w3.org/2000/svg">
<path d="M4.56453 44.305L158.307 1.60684C160.763 0.924727 163.307 2.3628 163.989 4.81886L172.766 36.4218C173.448 38.8779 172.01 41.4219 169.554 42.104L15.8116 84.8021C13.3555 85.4842 10.8115 84.0462 10.1294 81.5901L1.3525 49.9871C0.67039 47.5311 2.10846 44.9871 4.56453 44.305Z" fill="#3178C6"/>
<path d="M55.5231 45.9891L61.0585 44.4518L60.3044 41.7365L46.0495 45.6954L46.8036 48.4107L52.3257 46.8771L56.9252 63.4384L60.1226 62.5504L55.5231 45.9891ZM71.3729 61.8001L73.1732 44.095L70.0145 44.9723L69.3444 55.9621C69.3478 56.2924 69.353 56.5605 69.3601 56.7666L69.3702 56.9975L69.3025 57.0163C69.1452 56.729 69.0214 56.505 68.9311 56.3441L68.7832 56.0889L62.7114 47.0006L59.2423 47.964L68.5526 60.179L68.2486 62.6965C67.9912 64.0038 67.2775 64.82 66.1075 65.1449C65.7026 65.2574 65.2302 65.3016 64.6903 65.2778L65.411 67.873C65.8845 67.8669 66.4497 67.7727 67.1066 67.5903C69.4466 66.9404 70.8687 65.0103 71.3729 61.8001ZM82.9027 41.0439C84.6557 40.5571 86.1926 40.7911 87.5135 41.7461C88.8342 42.7012 89.7818 44.2133 90.3565 46.2825C90.9934 48.5757 90.9505 50.5657 90.2278 52.2525C89.5055 53.9389 88.1867 55.0481 86.2715 55.58C84.5092 56.0695 82.9377 55.6762 81.5571 54.4002L81.5031 54.4152L83.8242 62.7725L80.6953 63.6415L75.1165 43.554L78.2454 42.685L78.9171 45.1036L78.9711 45.0886C79.5333 42.9639 80.8439 41.6157 82.9027 41.0439ZM82.5298 43.9394C81.4159 44.2488 80.6289 44.8895 80.1687 45.8615C79.7083 46.8342 79.6413 47.9086 79.9679 49.0845L80.4393 50.7817C80.7165 51.7798 81.2727 52.537 82.1079 53.0534C82.9432 53.5701 83.8548 53.6912 84.8427 53.4168C86.0015 53.095 86.7867 52.3946 87.1983 51.3157C87.6097 50.2373 87.5928 48.8961 87.1473 47.2921C86.7737 45.9468 86.1734 44.9787 85.3464 44.3879C84.5196 43.7968 83.5808 43.6475 82.5298 43.9394ZM96.6829 37.2165C98.5545 36.6967 100.171 36.8996 101.532 37.8252C102.893 38.7508 103.872 40.2896 104.47 42.4415L104.802 43.6384L95.4708 46.23C95.8601 47.4932 96.5228 48.3667 97.4586 48.8504C98.3945 49.3341 99.5131 49.3952 100.814 49.0338C102.276 48.6279 103.495 47.816 104.472 46.5983L105.171 49.1131C104.142 50.2487 102.603 51.1012 100.553 51.6705C98.5389 52.2298 96.7855 52.0432 95.2927 51.1107C93.8001 50.1778 92.7388 48.5773 92.1088 46.309C91.5138 44.1664 91.6594 42.2453 92.5457 40.5457C93.432 38.846 94.8111 37.7363 96.6829 37.2165ZM108.609 27.9719C109.76 27.652 110.966 27.5247 112.225 27.5899L112.613 28.9873C111.337 28.7914 110.056 28.8723 108.769 29.2299C107.455 29.5948 106.505 30.2155 105.92 31.0921C105.334 31.9686 105.183 32.9174 105.467 33.9382C105.741 34.9236 106.222 35.6342 106.91 36.0702C107.598 36.5061 108.954 36.9833 110.979 37.5018C113.071 38.0206 114.527 38.5931 115.345 39.2193C116.164 39.8459 116.716 40.6743 117.002 41.7043C117.413 43.182 117.232 44.5297 116.46 45.7475C115.689 46.9652 114.362 47.8354 112.482 48.3579C111.816 48.5428 111.02 48.6528 110.094 48.6877C109.169 48.7229 108.439 48.6699 107.905 48.5288L107.484 47.0105C109.113 47.5036 110.639 47.5526 112.061 47.1574C113.573 46.7375 114.634 46.1076 115.244 45.2676C115.854 44.4276 116.003 43.4479 115.693 42.3285C115.419 41.3431 114.937 40.6302 114.248 40.1899C113.583 39.7654 112.293 39.3016 110.376 38.7984L110.16 38.742C107.882 38.1496 106.376 37.5429 105.641 36.9217C104.907 36.3011 104.4 35.4891 104.122 34.4857C103.743 33.1241 103.953 31.8212 104.752 30.5769C105.55 29.3328 106.836 28.4645 108.609 27.9719ZM97.36 39.471C96.4716 39.7178 95.8099 40.2553 95.3748 41.0837C94.9398 41.9123 94.7986 42.8773 94.9512 43.9786L101.269 42.224C100.948 41.102 100.443 40.2997 99.7533 39.8171C99.0643 39.3346 98.2667 39.2192 97.3603 39.4709M126.317 44.5152C127.745 44.1187 128.887 43.4642 129.742 42.5518L129.384 41.2631C128.558 42.2829 127.45 42.986 126.058 43.3724C124.54 43.7941 123.167 43.5921 121.941 42.7665C120.714 41.9408 119.853 40.6376 119.358 38.8568C118.846 37.0134 118.935 35.3716 119.626 33.9316C120.316 32.4917 121.474 31.546 123.1 31.0943C124.284 30.7655 125.458 30.7673 126.62 31.0997L126.233 29.7036C125.12 29.5502 124.034 29.6203 122.977 29.9139C120.935 30.4811 119.457 31.6411 118.542 33.3939C117.627 35.147 117.473 37.1153 118.08 39.2988C118.656 41.375 119.701 42.8946 121.214 43.8575C122.727 44.8205 124.428 45.0397 126.317 44.5152ZM134.588 28.3761C134.094 28.1929 133.57 28.1785 133.016 28.3327C131.933 28.6333 131.182 29.4478 130.761 30.7764C130.34 32.105 130.417 33.8043 130.992 35.8743L132.795 42.3671L131.588 42.7024L127.749 28.8799L128.956 28.5446L129.807 31.6087L129.861 31.5937C129.881 30.4541 130.15 29.4973 130.667 28.7235C131.184 27.9496 131.89 27.4386 132.785 27.1903C133.295 27.0488 133.773 27.0032 134.221 27.0534L134.588 28.3761ZM137.483 26.2342L141.307 40.003L140.011 40.363L136.187 26.5945L137.483 26.2342ZM135.373 20.8877C135.655 20.8093 135.929 20.8326 136.195 20.9578C136.46 21.0832 136.637 21.3029 136.724 21.617C136.806 21.9124 136.772 22.1954 136.621 22.466C136.471 22.7371 136.249 22.913 135.958 22.9938C135.684 23.0698 135.414 23.0353 135.148 22.8901C134.882 22.745 134.706 22.5155 134.618 22.2018C134.534 21.8968 134.572 21.6199 134.734 21.3711C134.895 21.1224 135.108 20.9613 135.373 20.8877ZM146.739 23.3147C148.484 22.8301 150.013 23.0537 151.327 23.9854C152.642 24.9173 153.586 26.4173 154.161 28.4852C154.8 30.7858 154.754 32.8016 154.025 34.5326C153.296 36.2633 152.01 37.3846 150.167 37.8966C148.108 38.4683 146.33 37.9643 144.831 36.3848L144.777 36.3996L147.212 45.168L145.977 45.511L140.402 25.4362L141.637 25.0932L142.424 27.9266L142.477 27.9118C142.689 26.7635 143.177 25.7867 143.941 24.9816C144.705 24.1765 145.638 23.6207 146.739 23.3147ZM147.003 24.4631C145.385 24.9124 144.283 25.7963 143.695 27.1148C143.107 28.4336 143.015 29.8171 143.417 31.2654L143.897 32.9954C144.279 34.372 145.046 35.4326 146.197 36.177C147.348 36.9214 148.638 37.0953 150.066 36.6987C151.485 36.3047 152.47 35.3835 153.022 33.935C153.573 32.4865 153.577 30.7834 153.034 28.8258C152.557 27.1092 151.772 25.8588 150.678 25.0746C149.584 24.2903 148.359 24.0865 147.003 24.4631ZM162.273 34.5296C162.834 34.3739 163.392 34.0551 163.949 33.5732L163.629 32.4201C163.133 32.9141 162.632 33.2315 162.124 33.3724C161.412 33.5701 160.848 33.498 160.432 33.1563C160.016 32.8146 159.676 32.1699 159.413 31.2222L156.896 22.1584L160.501 21.1572L160.188 20.0312L156.583 21.0323L155.477 17.0496C155.301 17.1755 155.115 17.2994 154.919 17.4213C154.725 17.5521 154.54 17.6805 154.364 17.8062L155.355 21.3731L152.898 22.0553L153.211 23.1814L155.667 22.4992L158.229 31.724C158.905 34.1555 160.253 35.0907 162.273 34.5296Z" fill="white"/>
</svg>
