<svg width="51" height="45" viewBox="0 0 51 45" fill="none" xmlns="http://www.w3.org/2000/svg">
<path d="M3.59647 40.2973L0.249068 34.4368L35.4122 14.3524L32.0648 8.49191L37.9253 5.1445L41.2727 11.005L47.1332 7.65762L50.4806 13.5181L44.6201 16.8655L47.9675 22.7261L42.107 26.0735L38.7596 20.2129L3.59647 40.2973ZM39.5939 35.2814L45.4544 31.934L42.107 26.0735L36.2465 29.4209L39.5939 35.2814ZM39.5939 35.2814L33.7333 38.6288L37.0807 44.4893L42.9413 41.1419L39.5939 35.2814ZM22.8569 5.97879L28.7174 2.63139L32.0648 8.49191L26.2043 11.8393L22.8569 5.97879ZM22.8569 5.97879L16.9963 9.32619L13.6489 3.46567L19.5095 0.118267L22.8569 5.97879Z" fill="#FFA1D1"/>
</svg>
